<svg viewBox="0 0 24 24" xmlns="http://www.w3.org/2000/svg"><path d="m18.41 12 1.3-1.29a1 1 0 0 0-1.42-1.42L17 10.59l-1.29-1.3a1 1 0 0 0-1.42 1.42l1.3 1.29-1.3 1.29a1 1 0 0 0 0 1.42 1 1 0 0 0 1.42 0l1.29-1.3 1.29 1.3a1 1 0 0 0 1.42 0 1 1 0 0 0 0-1.42Z" fill="#ffffff" class="fill-464646"></path><path d="M13.23 15.77a2.52 2.52 0 0 1 0-3.54l.23-.23-.23-.23a2.49 2.49 0 0 1 2.77-4V5a1 1 0 0 0-.53-.88 1 1 0 0 0-1 0L8.7 8H6a2 2 0 0 0-2 2v4a2 2 0 0 0 2 2h2.7l5.75 3.83A1 1 0 0 0 16 19v-2.73a2.58 2.58 0 0 1-2.77-.5Z" fill="#ffffff" class="fill-464646"></path></svg>